HIERARCHY
ROOT joint_Root
{
	OFFSET 0.0 0.0 0.0
	CHANNELS 6 Xposition Yposition Zposition Zrotation Xrotation Yrotation 
	JOINT Hips
	{
		OFFSET -0.726466 93.3139 -2.00062
		CHANNELS 6 Xposition Yposition Zposition Zrotation Xrotation Yrotation 
		JOINT Spine
		{
			OFFSET 15.7357 0.0 0.0
			CHANNELS 6 Xposition Yposition Zposition Zrotation Xrotation Yrotation 
			JOINT Chest
			{
				OFFSET 8.98455 -0.406207 0.0
				CHANNELS 6 Xposition Yposition Zposition Zrotation Xrotation Yrotation 
				JOINT Neck
				{
					OFFSET 16.3773 0.0 0.0
					CHANNELS 6 Xposition Yposition Zposition Zrotation Xrotation Yrotation 
					JOINT Head
					{
						OFFSET 6.45672 0.0 0.0
						CHANNELS 6 Xposition Yposition Zposition Zrotation Xrotation Yrotation 
						End Site
						{
							OFFSET 0.0 0.0 0.0
						}
					}
				}
				JOINT Shoulder_L
				{
					OFFSET 12.9942 -0.242716 4.98039
					CHANNELS 6 Xposition Yposition Zposition Zrotation Xrotation Yrotation 
					JOINT UpperArm_L
					{
						OFFSET 5.34809 0.0 0.0
						CHANNELS 6 Xposition Yposition Zposition Zrotation Xrotation Yrotation 
						JOINT LowerArm_L
						{
							OFFSET 24.3286 1.87007e-05 0.0
							CHANNELS 6 Xposition Yposition Zposition Zrotation Xrotation Yrotation 
							JOINT Hand_L
							{
								OFFSET 22.2916 0.0 0.0
								CHANNELS 6 Xposition Yposition Zposition Zrotation Xrotation Yrotation 
								End Site
								{
									OFFSET 0.0 0.0 0.0
								}
							}
						}
					}
				}
				JOINT Shoulder_R
				{
					OFFSET 12.9945 -0.242716 -4.98039
					CHANNELS 6 Xposition Yposition Zposition Zrotation Xrotation Yrotation 
					JOINT UpperArm_R
					{
						OFFSET -5.34813 0.0 0.0
						CHANNELS 6 Xposition Yposition Zposition Zrotation Xrotation Yrotation 
						JOINT LowerArm_R
						{
							OFFSET -24.3289 0.000322201 0.0
							CHANNELS 6 Xposition Yposition Zposition Zrotation Xrotation Yrotation 
							JOINT Hand_R
							{
								OFFSET -22.2915 -0.000108084 0.0
								CHANNELS 6 Xposition Yposition Zposition Zrotation Xrotation Yrotation 
								End Site
								{
									OFFSET 0.0 0.0 0.0
								}
							}
						}
					}
				}
			}
		}
		JOINT UpperLeg_L
		{
			OFFSET -2.19248 -6.46944 0.0
			CHANNELS 6 Xposition Yposition Zposition Zrotation Xrotation Yrotation 
			JOINT LowerLeg_L
			{
				OFFSET 39.0811 0.0 -1.23785e-05
				CHANNELS 6 Xposition Yposition Zposition Zrotation Xrotation Yrotation 
				JOINT Foot_L
				{
					OFFSET 40.9854 0.0 -1.26872e-05
					CHANNELS 6 Xposition Yposition Zposition Zrotation Xrotation Yrotation 
					JOINT Toes_L
					{
						OFFSET 11.7543 0.0 0.0
						CHANNELS 6 Xposition Yposition Zposition Zrotation Xrotation Yrotation 
						End Site
						{
							OFFSET 0.0 0.0 0.0
						}
					}
				}
			}
		}
		JOINT UpperLeg_R
		{
			OFFSET -2.19251 6.46944 0.0
			CHANNELS 6 Xposition Yposition Zposition Zrotation Xrotation Yrotation 
			JOINT LowerLeg_R
			{
				OFFSET -39.0811 -0.00228153 -0.0401928
				CHANNELS 6 Xposition Yposition Zposition Zrotation Xrotation Yrotation 
				JOINT Foot_R
				{
					OFFSET -40.9854 0.0 0.0
					CHANNELS 6 Xposition Yposition Zposition Zrotation Xrotation Yrotation 
					JOINT Toes_R
					{
						OFFSET -11.7543 0.0 0.0
						CHANNELS 6 Xposition Yposition Zposition Zrotation Xrotation Yrotation 
						End Site
						{
							OFFSET 0.0 0.0 0.0
						}
					}
				}
			}
		}
	}
}
MOTION
Frames:	6
Frame Time:	0.0333333
0.000000 0.000000 0.000000 0.000000 0.000000 -0.000000 -0.620254 92.308300 -0.578878 88.056400 -0.961272 3.924220 15.735700 0.000005 -0.000001 87.357600 85.739300 -87.074200 8.984550 -0.406207 -0.000000 0.747451 -0.410081 0.568973 16.377300 -0.000001 -0.000001 3.697810 -2.724410 0.699995 6.456720 -0.000001 -0.000000 3.610290 -1.980100 0.263500 12.994200 -0.242716 4.980390 -89.969200 -0.101662 -73.149600 5.348090 -0.000007 -0.000001 -67.595000 38.436300 -15.736400 24.328600 0.000019 0.000005 1.779190 4.101020 -23.476800 22.291600 -0.000001 0.000005 2.859350 5.464120 -5.140610 12.994500 -0.242716 -4.980390 87.775300 6.735010 -71.672900 -5.348130 -0.000001 -0.000004 -65.514600 39.926800 -16.249500 -24.328900 0.000322 -0.000009 3.079480 9.380440 -18.272500 -22.291500 -0.000108 -0.000004 5.529740 5.337220 -0.992055 -2.192480 -6.469440 -0.000000 -175.590000 -6.415310 -2.604850 39.081100 -0.000007 -0.000012 -0.108084 0.257495 22.770300 40.985400 -0.000006 -0.000013 -0.210680 3.209390 -66.439200 11.754300 -0.000000 0.000003 -0.000037 -0.000437 -16.594600 -2.192510 6.469440 -0.000001 179.572000 13.024100 179.572000 -39.081100 -0.002282 -0.040193 -0.043314 0.131152 19.574900 -40.985400 0.000008 0.000006 3.055610 7.528380 -65.662900 -11.754300 -0.000006 -0.000006 -0.007219 -0.081534 -19.892500
0.000000 0.000000 0.000000 0.000000 0.000000 -0.000000 -0.625714 92.291900 -0.625419 88.034400 -0.985600 4.075370 15.735700 0.000005 -0.000001 88.363100 85.712200 -88.088100 8.984550 -0.406207 -0.000000 0.806754 -0.261568 0.551380 16.377300 -0.000001 -0.000001 3.451770 -2.641470 0.700483 6.456720 -0.000001 -0.000000 3.484520 -2.085790 0.331625 12.994200 -0.242716 4.980390 -90.119000 0.389842 -73.023100 5.348090 -0.000007 -0.000001 -67.215900 34.921800 -16.264400 24.328600 0.000019 0.000005 1.667840 3.665300 -24.492200 22.291600 -0.000001 0.000005 -1.314040 5.440090 -4.275400 12.994500 -0.242716 -4.980390 87.816200 6.619640 -71.696000 -5.348130 -0.000001 -0.000004 -64.626900 39.544700 -16.885500 -24.328900 0.000322 -0.000009 3.643140 9.934380 -20.260100 -22.291500 -0.000108 -0.000004 1.782090 5.308650 -0.145787 -2.192480 -6.469440 -0.000000 -175.555000 -6.379390 -2.566360 39.081100 -0.000007 -0.000012 -0.108677 0.256893 22.930600 40.985400 -0.000006 -0.000013 -0.216449 3.171170 -66.485400 11.754300 -0.000000 0.000003 -0.000029 -0.000348 -16.591200 -2.192510 6.469440 -0.000001 179.578000 12.956700 179.630000 -39.081100 -0.002282 -0.040193 -0.044499 0.133476 19.711100 -40.985400 0.000008 0.000006 3.040160 7.457770 -65.699100 -11.754300 -0.000006 -0.000006 -0.007280 -0.082046 -19.913400
0.000000 0.000000 0.000000 0.000000 0.000000 -0.000000 -0.619814 92.301400 -0.793978 88.047400 -1.014470 4.184280 15.735700 0.000005 -0.000001 89.455000 85.647200 -89.225800 8.984550 -0.406207 -0.000000 0.939420 -0.096424 0.458840 16.377300 -0.000001 -0.000001 3.265350 -2.592430 0.781434 6.456720 -0.000001 -0.000000 3.115200 -2.092390 0.450727 12.994200 -0.242716 4.980390 -90.273700 0.890427 -72.915200 5.348090 -0.000007 -0.000001 -65.284100 30.785400 -18.714200 24.328600 0.000019 0.000005 1.314830 2.615500 -26.690500 22.291600 -0.000001 0.000005 -3.545810 5.437180 -4.185880 12.994500 -0.242716 -4.980390 87.766800 6.689770 -71.491700 -5.348130 -0.000001 -0.000004 -62.199200 37.464800 -19.105900 -24.328900 0.000322 -0.000009 4.437640 9.857690 -24.392700 -22.291500 -0.000108 -0.000004 -4.327220 5.277840 0.687565 -2.192480 -6.469440 -0.000000 -175.574000 -6.299390 -2.575570 39.081100 -0.000007 -0.000012 -0.110233 0.260416 22.942900 40.985400 -0.000006 -0.000013 -0.230158 3.096240 -66.380700 11.754300 -0.000000 0.000003 -0.000041 -0.000472 -16.595900 -2.192510 6.469440 -0.000001 179.598000 12.855800 179.563000 -39.081100 -0.002282 -0.040193 -0.041551 0.124692 19.792100 -40.985400 0.000008 0.000006 3.100410 7.388930 -65.616100 -11.754300 -0.000006 -0.000006 -0.007098 -0.080505 -19.850500
0.000000 0.000000 0.000000 0.000000 0.000000 -0.000000 -0.635936 92.311100 -1.105910 88.115200 -0.925787 4.340960 15.735700 0.000005 -0.000001 89.018100 85.561400 -88.833100 8.984550 -0.406207 -0.000000 1.110130 -0.162797 0.371371 16.377300 -0.000001 -0.000001 3.324200 -2.456950 0.733622 6.456720 -0.000001 -0.000000 2.604640 -1.956000 0.577697 12.994200 -0.242716 4.980390 -90.304500 0.990180 -72.906200 5.348090 -0.000007 -0.000001 -62.453300 26.196900 -22.416700 24.328600 0.000019 0.000005 2.516220 4.049480 -31.878600 22.291600 -0.000001 0.000005 -1.031790 5.482220 -5.806820 12.994500 -0.242716 -4.980390 87.651100 6.865050 -71.059900 -5.348130 -0.000001 -0.000004 -57.243600 34.874600 -23.788500 -24.328900 0.000322 -0.000009 5.733690 9.448970 -31.447200 -22.291500 -0.000108 -0.000004 -3.473550 5.284730 0.512339 -2.192480 -6.469440 -0.000000 -175.646000 -6.238580 -2.694890 39.081100 -0.000007 -0.000012 -0.107120 0.252273 23.007100 40.985400 -0.000006 -0.000013 -0.220534 3.119080 -66.176600 11.754300 -0.000000 0.000003 -0.000032 -0.000378 -16.592300 -2.192510 6.469440 -0.000001 179.546000 12.887200 179.406000 -39.081100 -0.002282 -0.040193 -0.044817 0.132468 19.971000 -40.985400 0.000008 0.000006 3.035120 7.322740 -65.473200 -11.754300 -0.000006 -0.000006 -0.007134 -0.080808 -19.862900
0.000000 0.000000 0.000000 0.000000 0.000000 -0.000000 -0.633161 92.346200 -1.470420 88.082600 -1.045270 4.352800 15.735700 0.000005 -0.000001 88.335200 85.556700 -88.111200 8.984550 -0.406207 -0.000000 1.117420 -0.271054 0.450227 16.377300 -0.000001 -0.000001 3.497710 -2.306040 0.592814 6.456720 -0.000001 -0.000000 2.462710 -1.628730 0.497492 12.994200 -0.242716 4.980390 -90.263400 0.864580 -73.058500 5.348090 -0.000007 -0.000001 -59.533300 20.279200 -26.686300 24.328600 0.000019 0.000005 3.222950 3.941100 -39.328600 22.291600 -0.000001 0.000005 2.580650 5.531320 -7.826120 12.994500 -0.242716 -4.980390 87.621000 6.851070 -70.798200 -5.348130 -0.000001 -0.000004 -51.721000 30.258600 -29.814500 -24.328900 0.000322 -0.000009 8.539710 9.938240 -41.018600 -22.291500 -0.000108 -0.000004 3.338100 5.307590 -0.124286 -2.192480 -6.469440 -0.000000 -175.617000 -6.481110 -2.918310 39.081100 -0.000007 -0.000012 -0.105126 0.247877 22.982100 40.985400 -0.000006 -0.000013 -0.189268 3.199470 -65.906200 11.754300 -0.000000 0.000003 -0.000034 -0.000401 -16.593200 -2.192510 6.469440 -0.000001 179.663000 12.786500 179.160000 -39.081100 -0.002282 -0.040193 -0.040866 0.121849 19.932500 -40.985400 0.000008 0.000006 3.154250 7.315070 -65.203100 -11.754300 -0.000006 -0.000006 -0.007343 -0.082583 -19.935300
0.000000 0.000000 0.000000 0.000000 0.000000 -0.000000 -0.606835 92.376800 -1.814310 88.081900 -1.206010 4.360480 15.735700 0.000005 -0.000001 87.715900 85.590200 -87.443200 8.984550 -0.406207 -0.000000 1.047490 -0.367336 0.548191 16.377300 -0.000001 -0.000001 3.623520 -2.143260 0.519207 6.456720 -0.000001 -0.000000 2.658330 -1.295010 0.276117 12.994200 -0.242716 4.980390 -90.156300 0.520782 -73.295500 5.348090 -0.000007 -0.000001 -57.286800 13.070900 -31.526200 24.328600 0.000019 0.000005 3.792520 3.426270 -47.952000 22.291600 -0.000001 0.000005 6.071810 5.559240 -9.123200 12.994500 -0.242716 -4.980390 87.744100 6.458140 -70.698200 -5.348130 -0.000001 -0.000004 -48.271200 22.710700 -36.008700 -24.328900 0.000322 -0.000009 11.469200 9.491510 -50.889500 -22.291500 -0.000108 -0.000004 8.898640 5.314580 -0.342128 -2.192480 -6.469440 -0.000000 -175.652000 -6.597020 -3.131150 39.081100 -0.000007 -0.000012 -0.101333 0.239325 22.948500 40.985400 -0.000006 -0.000013 -0.177646 3.133560 -65.644500 11.754300 -0.000000 0.000003 -0.000031 -0.000373 -16.592100 -2.192510 6.469440 -0.000001 179.634000 12.769100 178.963000 -39.081100 -0.002282 -0.040193 -0.049373 0.146274 19.811500 -40.985400 0.000008 0.000006 2.740530 7.568820 -64.816800 -11.754300 -0.000006 -0.000006 -0.007151 -0.080953 -19.868800
